<svg xmlns="http://www.w3.org/2000/svg" width="25.04" height="29.335"><defs><style>.cls-1{fill:#7e7e7e}</style></defs><g id="Group_409" data-name="Group 409" transform="translate(.397 -.131)"><path id="Path_813" d="M1479.049 5249.3c-.627 0-1.464.034-2 0-1.011-.063-1-.008-1-1-.011-3.857 0-8.144 0-12 0-.094-.017.133 0 0h16v11c0 1.407-.6 1.986-2 2h-1c0 1.115.005 1.946 0 3 0 .394.062 1.613 0 2-.151.946-1.019 1.081-2 1a2.416 2.416 0 01-2-2c-.023-1.354 0-2.59 0-4h-2c0 1.393.005 2.646 0 4a2.341 2.341 0 01-1 2 1.932 1.932 0 01-2 0 2.916 2.916 0 01-1-2c.007-1.234 0-2.625 0-4z" class="cls-1" data-name="Path 813" transform="translate(-1471.422 -5226.116)"/><path id="Path_814" d="M1480.04 5225.768l-2-2a2.608 2.608 0 012 1c.308.382-.3.542 0 1a9.78 9.78 0 017 0c.408-.622 1.559-1.388 2-2 .119-.166-.189.115 0 0-.033.215.1-.175 0 0-.346.6-.591 1.366-1 2a7.53 7.53 0 014 7h-16a7.523 7.523 0 014-7zm0 4c.212-.292.938-.679 1-1 .092-.478-.538-.088-1 0-.293.056-.921-.289-1 0-.124.458.326.822 1 1zm7 0h1c.218-.288-.069-.681 0-1 .1-.477.466-.078 0 0-.295.051-.967-.264-1 0a1.6 1.6 0 000 1z" class="cls-1" data-name="Path 814" transform="translate(-1471.413 -5223.583)"/><path id="Path_815" d="M1473.906 5241.213c0 1.21.011 2.791 0 4-.01 1.049-1.02.969-2 1s-1.988.034-2-1a344.098 344.098 0 010-8 2.116 2.116 0 012-2 2.2 2.2 0 012 2c.016 1.287 0 2.716 0 4z" class="cls-1" data-name="Path 815" transform="translate(-1470.279 -5226.028)"/><path id="Path_816" d="M1497.446 5241.214c0-1.211-.012-2.789 0-4a2.055 2.055 0 012-2c.988 0 .991.946 1 2 .023 2.5.021 5.505 0 8-.009 1.081-.007 1.034-1 1s-1.99.05-2-1c-.012-1.26 0-2.74 0-4z" class="cls-1" data-name="Path 816" transform="translate(-1475.819 -5226.029)"/><path id="Path_817" d="M1480.966 5230.981c-.674-.178-1.124-.542-1-1 .079-.289.707.056 1 0 .462-.088 1.092-.478 1 0-.066.319-.789.707-1 1z" class="cls-1" data-name="Path 817" transform="translate(-1472.339 -5224.796)"/><path id="Path_818" d="M1489.921 5230.982a1.6 1.6 0 010-1c.033-.264.7.05 1 0 .466-.079.1-.477 0 0-.069.319.218.712 0 1z" class="cls-1" data-name="Path 818" transform="translate(-1474.294 -5224.797)"/></g></svg>