<svg xmlns="http://www.w3.org/2000/svg" width="24.571" height="29.457"><defs><style>.cls-1{fill:#7e7e7e}</style></defs><g id="Group_408" data-name="Group 408" transform="translate(.138 -.017)"><path id="Path_811" d="M1429.645 5233.109c-2.809 1.9-3.786 3.892-3 7a6.5 6.5 0 003 4c.611.355.325.456 0 1-1.022 1.7-1.876 4.366-3 6-1.156 1.678-3.14 1.752-5 1a6.822 6.822 0 00-6 0c-2.233.93-4.614-.261-6-2-1.572-1.973-2.073-3.668-3-6a14.518 14.518 0 01-1-8 7.734 7.734 0 018-6c1.234.125 2.771.751 4 1 .576.117.447.174 1 0 1.94-.61 3.894-1.357 6-1a8.508 8.508 0 015 3z" class="cls-1" data-name="Path 811" transform="translate(-1405.571 -5223.092)"/><path id="Path_812" d="M1426.853 5221.3c.558 2.638-1.856 5.454-4 6-1.315.334-2.159.326-2-1 .304-2.55 3.468-4.933 6-5z" class="cls-1" data-name="Path 812" transform="translate(-1408.779 -5221.279)"/></g></svg>