<svg xmlns="http://www.w3.org/2000/svg" width="186" height="54.649"><defs><style>.cls-2{fill:#bdbdbd}</style></defs><g id="Group_823" data-name="Group 823" transform="translate(-688.308 -5156.497)"><path id="Rectangle_306" d="M0 0h72.557v20.576H0z" data-name="Rectangle 306" transform="translate(745.328 5190.57)" fill="none"/><path id="Path_1747" d="M690.183 5183.56l2.286-3.921a3.847 3.847 0 002.365 1.083 1.685 1.685 0 001.712-1.1l-8.237-16.233 5.754.012 3.551 7.71 1.163 2.881h.06q.332-1.349.845-2.846l2.655-7.727 5.515.011-6.359 16.052a18.041 18.041 0 01-.918 1.99 11.386 11.386 0 01-1.233 1.78 5.264 5.264 0 01-1.846 1.436 5.622 5.622 0 01-2.429.5 8.369 8.369 0 01-4.884-1.628z" class="cls-2" data-name="Path 1747" transform="translate(0 -1.179)"/><path id="Path_1748" d="M714.145 5184.87l.046-21.431 5.245.013-.017 8.271h2.157l4.455-8.263 5.634.013-5.807 10.237v.06l6.09 11.134-5.874-.013-4.507-8.7h-2.158l-.019 8.691z" class="cls-2" data-name="Path 1748" transform="translate(-4.423 -1.188)"/><path id="Path_1749" d="M738.556 5184.924l.046-21.431 8.9.02a6.591 6.591 0 015.046 2.078 7.457 7.457 0 011.922 5.31 7.551 7.551 0 01-1.944 5.345 6.565 6.565 0 01-5.056 2.073l-3.657-.007-.014 6.624zm5.269-11.109l2.578.006a2.536 2.536 0 002.024-.8 3.125 3.125 0 00.71-2.127 3.055 3.055 0 00-.685-2.1 2.467 2.467 0 00-1.947-.783l-2.668-.006z" class="cls-2" data-name="Path 1749" transform="translate(-8.603 -1.198)"/><path id="Path_1750" d="M757.107 5184.967l7.33-21.414 5.515.011 7.237 21.446-5.4-.011-1.309-4.5-6.683-.014-1.3 4.493zm7.932-8.675l4.226.009-1.19-4.169-.861-3.689h-.06q-.485 2.337-.877 3.685z" class="cls-2" data-name="Path 1750" transform="translate(-11.779 -1.208)"/><path id="Path_1751" d="M781.144 5160.693l.009-4.2 3.776.008-.009 4.2zm2.318 23.114l.046-21.431 5.245.012-.046 21.43zm3.946-23.1l.009-4.2 3.777.008-.009 4.2z" class="cls-2" data-name="Path 1751" transform="translate(-15.894)"/><path id="Path_1752" d="M795.694 5185.047l.046-21.43 5.245.011-.018 8.573 7.793.016.018-8.572 5.245.012-.047 21.43-5.245-.012.018-8.393-7.793-.016-.018 8.393z" class="cls-2" data-name="Path 1752" transform="translate(-18.385 -1.219)"/><path id="Path_1753" d="M821.832 5174.274a10.665 10.665 0 013.179-7.876 10.97 10.97 0 018.084-3.13 12.872 12.872 0 014.375.774 9.956 9.956 0 013.652 2.271l-2.437 3.951a9.123 9.123 0 00-2.529-1.578 7.263 7.263 0 00-2.831-.621 5.637 5.637 0 00-4.529 1.773 6.43 6.43 0 00-1.538 4.328 6.919 6.919 0 001.563 4.529 5.469 5.469 0 004.477 1.928A7.962 7.962 0 00839 5178l2.69 3.842a11.519 11.519 0 01-8.64 3.578 10.639 10.639 0 01-11.215-11.144z" class="cls-2" data-name="Path 1753" transform="translate(-22.86 -1.159)"/><path id="Path_1754" d="M849 5185.163l.047-21.43 5.245.012-.015 6.623 3.657.008a6.573 6.573 0 015.047 2.094 7.555 7.555 0 011.921 5.354 7.458 7.458 0 01-1.944 5.3 6.6 6.6 0 01-5.056 2.057zm5.255-4.484l2.668.005a2.464 2.464 0 001.95-.774 3.051 3.051 0 00.694-2.1 3.126 3.126 0 00-.7-2.129 2.535 2.535 0 00-2.021-.813l-2.578-.006z" class="cls-2" data-name="Path 1754" transform="translate(-27.511 -1.239)"/><path id="Path_1755" d="M871.6 5185.212l.046-21.431 5.245.012-.018 8.272h2.158l4.454-8.262 5.635.013-5.807 10.237v.061l6.091 11.133-5.874-.014-4.508-8.7h-2.157l-.019 8.692z" class="cls-2" data-name="Path 1755" transform="translate(-31.381 -1.247)"/><path id="Path_1756" d="M896.011 5185.265l.046-21.43 13.427.029-.01 4.5-8.182-.018-.009 3.9 6.534.014-.009 4.5-6.534-.015-.009 4.046 8.6.02-.01 4.495z" class="cls-2" data-name="Path 1756" transform="translate(-35.56 -1.256)"/><g id="Group_816" data-name="Group 816" transform="translate(752.036 5196.429)"><path id="Path_1757" d="M786.12 5213.6a1.511 1.511 0 111.515-1.508 1.513 1.513 0 01-1.515 1.508z" class="cls-2" data-name="Path 1757" transform="translate(-768.524 -5205.688)"/><path id="Path_1758" d="M786.131 5208.461a1.512 1.512 0 111.515-1.509 1.513 1.513 0 01-1.515 1.509z" class="cls-2" data-name="Path 1758" transform="translate(-768.526 -5204.809)"/><path id="Path_1759" d="M772.066 5204.692h-1.845a.106.106 0 00-.119.116l-.011 5.336c0 1.081-.511 1.617-1.408 1.616s-1.4-.542-1.4-1.622l.011-5.337a.105.105 0 00-.118-.116h-1.846a.1.1 0 00-.118.117l-.012 5.388a4.064 4.064 0 00.221 1.376 2.95 2.95 0 00.656 1.075 2.914 2.914 0 001.072.693 5.169 5.169 0 003.057.006 2.915 2.915 0 001.076-.689 2.945 2.945 0 00.661-1.072 4.072 4.072 0 00.227-1.375l.012-5.389a.1.1 0 00-.116-.123z" class="cls-2" data-name="Path 1759" transform="translate(-765.201 -5204.678)"/><path id="Path_1760" d="M782.1 5213.352a1755.87 1755.87 0 01-2.666-8.509.171.171 0 00-.167-.133l-2.161-.005a.182.182 0 00-.166.133c-.015.045-2.362 7.469-2.7 8.5a.085.085 0 00.088.124h1.953a.118.118 0 00.125-.106c.02-.069 1.658-5.794 1.756-6.129 0-.009.01-.014.023-.014a.021.021 0 01.023.015c.1.34 1.711 6.067 1.73 6.137a.119.119 0 00.125.105l1.952.005a.085.085 0 00.085-.123z" class="cls-2" data-name="Path 1760" transform="translate(-766.746 -5204.682)"/></g><path id="Path_1761" d="M793.821 5213.307l.018-8.477 3.521.007a2.609 2.609 0 012 .822 2.948 2.948 0 01.76 2.1 2.985 2.985 0 01-.769 2.115 2.6 2.6 0 01-2 .819h-1.446l-.006 2.62zm2.083-4.395h1.02a1 1 0 00.8-.318 1.237 1.237 0 00.28-.841 1.2 1.2 0 00-.271-.831.975.975 0 00-.77-.31h-1.055z" class="cls-2" data-name="Path 1761" transform="translate(-18.065 -8.275)"/><path id="Path_1762" d="M801.159 5213.325l2.9-8.47h2.181l2.863 8.483h-2.134l-.518-1.779-2.644-.006-.513 1.778zm3.137-3.432h1.672l-.471-1.649-.341-1.459h-.023c-.128.616-.244 1.1-.347 1.457z" class="cls-2" data-name="Path 1762" transform="translate(-19.321 -8.28)"/><path id="Path_1763" d="M810.817 5211.578h.877a9.324 9.324 0 001.089-4.705v-2l5.739.013-.015 6.709h.949l-.007 3.427h-1.838v-1.66l-4.9-.01v1.659h-1.908zm3 .007l2.62.006.011-4.932h-1.7v.392a13.683 13.683 0 01-.225 2.406 7.105 7.105 0 01-.706 2.127z" class="cls-2" data-name="Path 1763" transform="translate(-20.973 -8.282)"/><path id="Path_1764" d="M822.815 5213.37l.019-8.478h2.074l-.018 8.477z" class="cls-2" data-name="Path 1764" transform="translate(-23.029 -8.285)"/><path id="Path_1765" d="M826.918 5209.06a4.154 4.154 0 011.269-3.08 4.663 4.663 0 016.343.014 4.152 4.152 0 011.256 3.085 4.434 4.434 0 11-8.867-.02zm2.146 0a2.584 2.584 0 00.66 1.81 2.174 2.174 0 003.249.007 2.583 2.583 0 00.667-1.806 2.415 2.415 0 00-.66-1.732 2.234 2.234 0 00-3.249-.007 2.415 2.415 0 00-.667 1.732z" class="cls-2" data-name="Path 1765" transform="translate(-23.731 -8.26)"/></g></svg>