<svg xmlns="http://www.w3.org/2000/svg" width="27.102" height="27.063"><g data-name="Group 456"><path data-name="Path 956" d="M6.054 14.043c0 .127.994-.125 1 0-.007-.134-1 .136-1 0z" fill="none"/><path data-name="Path 957" d="M14.054 7.036c-.135 0-.866-.008-1 0 .143-.008.855 0 1 0z" fill="none"/><path data-name="Path 958" d="M14.054 21.04c.11 0-.109 0 0 0-.117.005.118 0 0 0z" fill="none"/><path data-name="Path 959" d="M13.054 2.039c-2.086 0-3.914-.015-6 0a6.04 6.04 0 00-4 2 6.338 6.338 0 014-2c2.116-.029 3.887.015 6 0z" fill="none"/><path data-name="Path 960" d="M2.053 14.036c0 2.132-.041 3.868 0 6 .029 1.543.131 3.118 1 4-.833-.873-.962-2.5-1-4-.055-2.141.015-3.848 0-6z" fill="none"/><path data-name="Path 961" d="M14.054 25.04c2.112 0 3.889.033 6 0 1.529-.024 3.136-.111 4-1-.854.853-2.512.966-4 1-2.138.048-3.862-.015-6 0z" fill="none"/><path data-name="Path 962" d="M21.054 13.039c.006.128 0 .871 0 1 0-.126.006-.881 0-1z" fill="none"/><path data-name="Path 963" d="M21.054 5.039c.53.052.724-.258 1 0-.277-.292-.432-.948-1-1-.844.122-2.187 1.051-2 2 .061.313.711.705 1 1-.266-.287.057-.7 0-1-.18-.952.154-.884 1-1z" fill="none"/><path data-name="Path 964" d="M25.054 14.038c0-2.066.028-4.936 0-7-.021-1.647-.081-3.123-1-4 .881.869.967 2.4 1 4 .042 2.092-.015 4.91 0 7z" fill="none"/><path data-name="Path 965" d="M27.054 7.039a7.563 7.563 0 00-7-7c-4.61-.043-8.39-.06-13 0-3.365.043-6.948 3.646-7 7a453.73 453.73 0 000 14c.054 3.56 3.424 5.917 7 6 2.281.054 4.717 0 7 0s3.719.049 6 0c3.576-.076 6.948-2.445 7-6 .068-4.609.061-9.394 0-14zm-3 17c-.863.889-2.471.976-4 1-2.111.033-3.887 0-6 0h-1a333.34 333.34 0 01-6 0c-1.519-.016-3.147-.108-4-1-.869-.882-.971-2.457-1-4-.041-2.132 0-3.868 0-6-.014-2.045 0-4.955 0-7 0-1.637.1-2.095 1-3a6.04 6.04 0 014-2c2.086-.015 3.914 0 6 0 2.047-.013 4.953 0 7 0 1.659 0 3.094.106 4 1 .919.877.979 2.353 1 4 .028 2.064 0 4.934 0 7 .016 2.157.014 3.843 0 6-.009 1.525-.122 3.124-1 4z" fill="#7e7e7e"/><path data-name="Path 966" d="M25.054 7.04c-.033-1.6-.119-3.131-1-4-.906-.894-2.341-1-4-1-2.047 0-4.953-.013-7 0-2.113.014-3.888-.029-6 0a6.338 6.338 0 00-4 2c-.9.9-1 1.363-1 3 0 2.045-.014 4.955 0 7 .014 2.148-.056 3.855 0 6 .038 1.5.167 3.128 1 4 .853.892 2.481.984 4 1 2.135.023 3.865.013 6 0h1c2.139-.015 3.863.049 6 0 1.488-.034 3.146-.147 4-1 .878-.876.99-2.475 1-4 .014-2.157.016-3.843 0-6-.015-2.092.042-4.91 0-7zm-4 7c0 .1 0-.1 0 0-.006.135-.986-.133-1 0-.01.1.014.9 0 1-.02.132.026-.129 0 0-.021.1.025-.1 0 0-.031.124.038.879 0 1-.032.1.037-.1 0 0s.047-.111 0 0 .047.9 0 1 .055-.1 0 0 .057-.094 0 0-.936.906-1 1 .068-.089 0 0 .071-.085 0 0 .076-.083 0 0-.922.923-1 1 .085-.077 0 0 .084-.069 0 0 .094-.07 0 0-.911-.06-1 0 .1.94 0 1 .093-.05 0 0 .11-.052 0 0c-.095.044-.9-.041-1 0-.113.047.116-.043 0 0-.1.035.1-.031 0 0-.117.036-.881-.03-1 0s.107-.022 0 0 .123.982 0 1-.889-.012-1 0 .122-.006 0 0 .11 0 0 0c-.108 0-.893.005-1 0-.129-.005.127.012 0 0-.1-.011-.9.015-1 0-.134-.019.13-.973 0-1-.1-.019.095.023 0 0-.133-.033-.87.041-1 0-.092-.028.09.032 0 0-.128-.045.123.052 0 0-.088-.037.086.041 0 0-.12-.057-.884.063-1 0-.085-.045.083.049 0 0-.111-.067.107-.928 0-1-.083-.056-.92.059-1 0-.1-.075.1.081 0 0-.079-.065.076.068 0 0-.091-.082.087.087 0 0s-.929-.922-1-1 .075.092 0 0 .065.086 0 0 .064.1 0 0 .057-.906 0-1-.944.1-1 0 .049.1 0 0 .044-.9 0-1 .04.109 0 0 .033.11 0 0 .029-.885 0-1 .023.115 0 0 .017.115 0 0 .012-.876 0-1c-.011-.108.005.109 0 0-.006-.125-1 .127-1 0 0-.1 1-.906 1-1 .006-.139-.014.136 0 0 .01-.1-.015.1 0 0 .02-.134-.027-.87 0-1 .021-.1-.025.1 0 0 .032-.123-.037-.88 0-1s-.039.1 0 0-.046.106 0 0-.052.106 0 0-.053-.905 0-1 .935.1 1 0c.054-.087-.057.084 0 0 .074-.107-.08-.9 0-1 .058-.075-.061.073 0 0 .087-.1-.093.1 0 0 .061-.065.936.063 1 0 .1-.1-.1-.91 0-1 .067-.059-.068.055 0 0 .107-.085-.111.079 0 0 .074-.052.924.05 1 0 .111-.073-.116.067 0 0 .081-.047-.084-.956 0-1 .117-.062.879.056 1 0 .088-.04-.091.036 0 0 .119-.049-.122.042 0 0 .1-.034.9.029 1 0 .118-.036-.121.029 0 0s-.111.022 0 0 .886.017 1 0-.125.012 0 0c.1-.01-.1 0 0 0 .134-.008.865 0 1 0 .084 0-.084 0 0 0 .147.006-.145-.016 0 0 .094.01.906-.013 1 0 .135.021-.133-.029 0 0 .1.021-.1-.025 0 0 .121.032.882-.038 1 0 .1.034-.1-.037 0 0s-.106-.046 0 0 .9-.052 1 0-.094-.052 0 0-.1.934 0 1c.085.054.917-.058 1 0 .106.073-.1-.079 0 0 .074.058-.072-.061 0 0 .1.084-.1-.091 0 0 .067.063.936.935 1 1 .091.092-.085-.1 0 0 .062.071-.059-.073 0 0 .081.1-.075-.106 0 0 .056.077-.052.92 0 1 .072.109.934-.115 1 0 .047.08-.044-.082 0 0 .06.115-.054.882 0 1 .041.089-.037-.091 0 0 .048.116-.041-.119 0 0 .034.1-.03.9 0 1 .036.119-.029-.122 0 0 .025.1-.021-.106 0 0s-.017.88 0 1-.012-.117 0 0 .994-.113 1 0 0 .878 0 1zm0-6c-.305-.08-.724-.7-1-1s-.939-.687-1-1c-.187-.949 1.156-1.878 2-2 .568.052.723.708 1 1 .3.276 1.031.479 1 1-.058.981-1.065 2.246-2 2z"/><path data-name="Path 967" d="M20.054 13.036c-.012-.117.017.114 0 0s.023-.883 0-1 .025.105 0 0c-.029-.122.036.12 0 0-.03-.1.034-.9 0-1-.041-.119.048.116 0 0-.037-.09.041.089 0 0-.054-.118.06-.885 0-1-.044-.082.047.08 0 0-.066-.115-.928.11-1 0-.052-.08.056-.923 0-1-.075-.106.081.1 0 0-.059-.073.062.071 0 0-.085-.1.091.093 0 0-.064-.065-.933-.937-1-1-.1-.09.1.084 0 0-.072-.061.074.058 0 0-.1-.079.106.073 0 0-.083-.058-.915.054-1 0-.1-.065.107-.94 0-1s.1.048 0 0-.893.046-1 0 .109.042 0 0 .1.033 0 0c-.119-.038-.879.032-1 0-.1-.025.1.021 0 0-.133-.029.135.021 0 0-.094-.013-.905.01-1 0-.145-.016.147.007 0 0-.083 0 .084 0 0 0-.145 0-.857-.008-1 0-.1.005.1-.01 0 0-.126.012.124-.018 0 0s-.887-.021-1 0 .11-.027 0 0 .118-.036 0 0c-.1.029-.9-.034-1 0-.122.042.119-.05 0 0-.091.036.088-.04 0 0-.121.056-.883-.062-1 0-.084.044.081.953 0 1-.116.067.111-.073 0 0-.076.05-.926-.053-1 0-.11.079.106-.085 0 0-.068.055.067-.059 0 0-.1.09.1.9 0 1-.064.063-.939-.065-1 0-.093.1.087-.1 0 0-.061.073.058-.075 0 0-.079.1.074.893 0 1-.057.084.054-.086 0 0-.065.1-.94-.108-1 0s.048.9 0 1 .047-.109 0 0 .041-.109 0 0 .034-.106 0 0 .032.877 0 1c-.025.1.021-.1 0 0-.027.13.02.866 0 1-.015.1.01-.1 0 0-.014.136.006-.139 0 0 0 .095-1 .9-1 1 0 .135.993-.134 1 0 .005.109-.011-.108 0 0s-.017.879 0 1-.022-.114 0 0-.029-.113 0 0-.034.889 0 1-.039-.108 0 0-.044-.107 0 0-.048.9 0 1-.053-.1 0 0 .94-.1 1 0-.061.909 0 1-.069-.094 0 0-.069-.083 0 0-.08-.087 0 0 .925.925 1 1-.091-.082 0 0c.076.069-.079-.065 0 0 .1.08-.1-.074 0 0 .079.059.917-.056 1 0 .107.072-.111.933 0 1 .083.049-.085-.045 0 0 .116.064.88-.057 1 0 .086.041-.088-.037 0 0 .123.053-.128-.045 0 0 .09.032-.092-.028 0 0 .13.041.867-.033 1 0 .095.023-.1-.019 0 0 .13.027-.134.981 0 1 .1.015.9-.011 1 0 .127.012-.129-.005 0 0 .107.005.892 0 1 0 .118 0-.117.005 0 0s-.121.012 0 0 .89.016 1 0-.121-.976 0-1-.1.026 0 0 .883.036 1 0c.1-.031-.1.035 0 0 .116-.042-.113.047 0 0 .1-.041.905.044 1 0 .11-.052-.106.058 0 0s-.091.055 0 0-.1-.935 0-1 .914.063 1 0-.09.074 0 0-.08.073 0 0-.081.08 0 0 .926-.919 1-1-.072.087 0 0-.066.088 0 0-.064.093 0 0 .941-.9 1-1-.053.1 0 0-.051.1 0 0-.043-.9 0-1-.041.113 0 0-.032.1 0 0c.038-.121-.031-.877 0-1 .026-.1-.021.1 0 0 .026-.129-.02.132 0 0 .014-.1-.01-.9 0-1 .014-.133.994.135 1 0 0-.1 0 .1 0 0 0-.13.006-.872 0-1-.006-.109-.99.115-1 0zm-7 6a4.841 4.841 0 01-5-5c.04-2.9 3.111-6.064 6-6 2.925.064 5.033 3.091 5 6-.033 2.867-3.152 5.074-6 5z" fill="#7e7e7e"/><path data-name="Path 968" d="M21.053 5.04c-.845.116-1.18.051-1 1 .057.3-.266.713 0 1s.695.92 1 1c.935.247 1.943-1.019 2-2 .031-.521-.7-.724-1-1-.275-.258-.47.052-1 0z" fill="#7e7e7e"/><path data-name="Path 969" d="M14.054 8.039c-2.889-.063-5.96 3.1-6 6a4.84 4.84 0 005 5c2.848.071 5.967-2.136 6-5 .033-2.908-2.075-5.935-5-6z"/></g></svg>