<svg xmlns="http://www.w3.org/2000/svg" width="223.359" height="65.625"><defs><style>.cls-1{fill:#651723}.cls-2{fill:#fff}</style></defs><g id="Group_628" data-name="Group 628" transform="translate(-98 105.067)"><path id="Rectangle_258" d="M0 0h87.131v24.709H0z" class="cls-1" data-name="Rectangle 258" transform="translate(166.473 -64.151)"/><path id="Path_1228" d="M100.251-73.444L103-78.153a4.614 4.614 0 002.841 1.3 2.022 2.022 0 002.055-1.327L98-97.672l6.91.015 4.263 9.26 1.4 3.459h.071q.4-1.62 1.015-3.418l3.188-9.278 6.622.014-7.636 19.276a21.667 21.667 0 01-1.1 2.391 13.779 13.779 0 01-1.481 2.138 6.33 6.33 0 01-2.217 1.723 6.737 6.737 0 01-2.917.605 10.047 10.047 0 01-5.867-1.957z" class="cls-1" data-name="Path 1228" transform="translate(0 -.541)"/><path id="Path_1229" d="M125.746-71.877l.056-25.734 6.3.013-.022 9.934 2.591.006 5.349-9.922 6.767.015-6.973 12.294v.071l7.313 13.37-7.054-.016-5.415-10.454-2.591-.006-.023 10.438z" class="cls-1" data-name="Path 1229" transform="translate(-2.031 -.546)"/><path id="Path_1230" d="M151.959-71.821l.056-25.734 10.69.024a7.915 7.915 0 016.059 2.5 8.957 8.957 0 012.308 6.375 9.069 9.069 0 01-2.336 6.42 7.888 7.888 0 01-6.071 2.488l-4.39-.01-.018 7.955zm6.327-13.339l3.1.007a3.047 3.047 0 002.432-.966 3.756 3.756 0 00.852-2.554 3.668 3.668 0 00-.823-2.521 2.96 2.96 0 00-2.337-.941l-3.2-.007z" class="cls-1" data-name="Path 1230" transform="translate(-3.95 -.55)"/><path id="Path_1231" d="M171.881-71.775l8.8-25.716 6.623.015L196-71.723l-6.479-.014-1.572-5.4-8.026-.018-1.559 5.4zm9.525-10.417l5.075.011-1.429-5.007-1.034-4.429h-.072q-.582 2.805-1.053 4.425z" class="cls-1" data-name="Path 1231" transform="translate(-5.408 -.555)"/><path id="Path_1232" d="M197.693-100.028l.011-5.039 4.535.009-.011 5.039zm2.784 27.756l.056-25.734 6.3.014-.057 25.734zm4.739-27.74l.011-5.039 4.535.01-.011 5.041z" class="cls-1" data-name="Path 1232" transform="translate(-7.298)"/><path id="Path_1233" d="M213.318-71.687l.056-25.734 6.3.013-.022 10.294 9.358.02.023-10.294 6.3.014-.056 25.734-6.3-.014.023-10.077-9.359-.02-.021 10.078z" class="cls-1" data-name="Path 1233" transform="translate(-8.441 -.56)"/><path id="Path_1234" d="M241.387-84.579a12.806 12.806 0 013.818-9.458 13.168 13.168 0 019.708-3.758 15.411 15.411 0 015.253.93 11.957 11.957 0 014.386 2.727l-2.926 4.744a10.99 10.99 0 00-3.037-1.9 8.728 8.728 0 00-3.4-.745 6.768 6.768 0 00-5.439 2.13 7.72 7.72 0 00-1.846 5.2 8.3 8.3 0 001.877 5.438 6.563 6.563 0 005.376 2.315A9.559 9.559 0 00262-80.107l3.23 4.614a13.841 13.841 0 01-10.376 4.3 13.119 13.119 0 01-9.8-3.782 13.127 13.127 0 01-3.667-9.604z" class="cls-1" data-name="Path 1234" transform="translate(-10.496 -.532)"/><path id="Path_1235" d="M270.56-71.563l.056-25.734 6.3.014-.018 7.954 4.391.009a7.893 7.893 0 016.059 2.514 9.074 9.074 0 012.308 6.43 8.955 8.955 0 01-2.336 6.365 7.917 7.917 0 01-6.071 2.471zm6.31-5.386l3.2.007a2.957 2.957 0 002.341-.931 3.663 3.663 0 00.834-2.517 3.758 3.758 0 00-.841-2.557 3.047 3.047 0 00-2.427-.978l-3.1-.006z" class="cls-1" data-name="Path 1235" transform="translate(-12.631 -.569)"/><path id="Path_1236" d="M294.832-71.511l.056-25.734 6.3.014-.022 9.933 2.591.007 5.349-9.922 6.766.015L308.9-84.9v.071l7.314 13.369-7.055-.015-5.413-10.45-2.591-.006-.025 10.431z" class="cls-1" data-name="Path 1236" transform="translate(-14.408 -.573)"/><path id="Path_1237" d="M321.045-71.454l.057-25.734 16.124.035-.011 5.4-9.826-.021-.01 4.679 7.846.017-.012 5.4-7.846-.017-.01 4.859 10.33.022-.012 5.4z" class="cls-1" data-name="Path 1237" transform="translate(-16.327 -.577)"/><g id="Group_627" data-name="Group 627" transform="translate(174.529 -57.115)"><path id="Path_1238" d="M203.229-43.364a1.818 1.818 0 01-1.812-1.818 1.819 1.819 0 011.82-1.811 1.817 1.817 0 011.811 1.818 1.816 1.816 0 01-1.819 1.811z" class="cls-2" data-name="Path 1238" transform="translate(-182.099 52.864)"/><path id="Path_1239" d="M203.241-48.881a1.818 1.818 0 01-1.812-1.82 1.819 1.819 0 011.82-1.811 1.817 1.817 0 011.811 1.819 1.817 1.817 0 01-1.819 1.812z" class="cls-2" data-name="Path 1239" transform="translate(-182.1 53.268)"/><path id="Path_1240" d="M188.817-53.31h-2.216a.127.127 0 00-.143.14l-.014 6.408c0 1.3-.614 1.944-1.691 1.941s-1.684-.651-1.681-1.948l.014-6.408a.127.127 0 00-.143-.14l-2.215-.006a.125.125 0 00-.142.14l-.014 6.472a4.836 4.836 0 00.266 1.652 3.527 3.527 0 00.788 1.291 3.471 3.471 0 001.288.832 5.07 5.07 0 001.834.282 5.1 5.1 0 001.837-.273 3.494 3.494 0 001.291-.827 3.52 3.52 0 00.793-1.288 4.844 4.844 0 00.273-1.651l.014-6.472a.126.126 0 00-.139-.145z" class="cls-2" data-name="Path 1240" transform="translate(-180.573 53.328)"/><path id="Path_1241" d="M199.719-42.915c-.4-1.236-3.185-10.162-3.2-10.218a.207.207 0 00-.2-.16l-2.6-.006a.22.22 0 00-.2.159c-.018.056-2.836 8.97-3.247 10.2a.1.1 0 00.1.147l2.347.006c.086 0 .127-.044.15-.127s1.991-6.957 2.108-7.361c0-.011.011-.017.028-.017a.025.025 0 01.028.018c.118.408 2.054 7.286 2.077 7.369a.143.143 0 00.15.127l2.344.006a.1.1 0 00.115-.143z" class="cls-2" data-name="Path 1241" transform="translate(-181.283 53.326)"/></g><path id="Path_1242" d="M211.306-42.985l.022-10.179 4.228.009a3.131 3.131 0 012.4.987 3.54 3.54 0 01.913 2.522 3.586 3.586 0 01-.923 2.539 3.123 3.123 0 01-2.4.984h-1.737l-.007 3.146zm2.5-5.276h1.224a1.206 1.206 0 00.962-.382 1.485 1.485 0 00.336-1.01 1.451 1.451 0 00-.325-1 1.166 1.166 0 00-.925-.372h-1.267z" class="cls-2" data-name="Path 1242" transform="translate(-8.294 -3.799)"/><path id="Path_1243" d="M219.187-42.967l3.481-10.172 2.62.006 3.438 10.186-2.563-.006-.622-2.136-3.175-.007-.616 2.134zm3.767-4.121h2.007l-.565-1.981-.41-1.752h-.028q-.231 1.109-.417 1.75z" class="cls-2" data-name="Path 1243" transform="translate(-8.871 -3.801)"/><path id="Path_1244" d="M229.559-45.066h1.054a11.2 11.2 0 001.308-5.649v-2.406l6.891.015-.018 8.058h1.139l-.008 4.114h-2.207v-1.994l-5.88-.012v1.993h-2.292zm3.6.007l3.147.006.013-5.922h-2.036v.47a16.457 16.457 0 01-.27 2.89 8.505 8.505 0 01-.852 2.556z" class="cls-2" data-name="Path 1244" transform="translate(-9.63 -3.803)"/><path id="Path_1245" d="M242.443-42.918l.022-10.179 2.491.006-.022 10.179z" class="cls-2" data-name="Path 1245" transform="translate(-10.573 -3.804)"/><path id="Path_1246" d="M246.848-48.074a4.993 4.993 0 011.525-3.7 5.2 5.2 0 013.812-1.487 5.2 5.2 0 013.8 1.5 4.985 4.985 0 011.508 3.7 5.174 5.174 0 01-1.524 3.791 5.142 5.142 0 01-3.812 1.523 5.141 5.141 0 01-3.805-1.539 5.18 5.18 0 01-1.504-3.788zm2.577.006a3.1 3.1 0 00.792 2.173 2.538 2.538 0 001.948.88 2.539 2.539 0 001.953-.871 3.1 3.1 0 00.8-2.17 2.9 2.9 0 00-.792-2.081 2.585 2.585 0 00-1.949-.843 2.583 2.583 0 00-1.952.835 2.9 2.9 0 00-.8 2.076z" class="cls-2" data-name="Path 1246" transform="translate(-10.896 -3.792)"/></g></svg>