<svg xmlns="http://www.w3.org/2000/svg" width="51.011" height="33.568"><path d="M6.01 4.2a2.047 2.047 0 010 2l-4 4c-.117.087.021-.144 0 0s-.058-.136 0 0c.258.608-.579 1.491-1 2a5.883 5.883 0 00-1 3c-.054.929.1 1.782 1 2a1.078 1.078 0 011-1 9.6 9.6 0 012 1c.821.465 1.063.1 2 0-.2.672 1.347 1.255 2 1s1.3-.924 2-1c.294-.031.705.032 1 0 .6-.065.485-.68 1-1 1.522-.946 3.6-.116 5 1 .317.252.6-.045 1 0 .272.031.731-.05 1 0 .743.139 1.028 1.245 1 2s.251 2.1 1 2c-.227.6-.51 1.613 0 2 .185.139.805-.125 1 0 .349.226.163.617 0 1-.46.7-1.214-.3-2 0a1.954 1.954 0 00-1 2l-2 2c-.176.18.061.757 0 1-.118.468-.466.878 0 1a4.419 4.419 0 002 0c.419-.175.547-1.013 1-1s1.049.55 1 1c.556-.48-.412-1.392 0-2 .243-.357.579-.9 1-1 .8-.185 1.644-.261 2-1s.4-1.438 1-2a1.341 1.341 0 012 0 10.506 10.506 0 001 1c.235.22.687-.069 1 0a28.3 28.3 0 005 1c.264.56-.453.712-1 1l-2 1a5.575 5.575 0 00-1 1c-.2.507.455.011 1 0a5.519 5.519 0 013 1c.851.7-.781 2.226 0 3a1.545 1.545 0 002 0 9.942 9.942 0 013-2c.354-.1.817.319 1 0 .172-.3-.222-.736 0-1 .592-.705 1.159.376 2 0 .387-.173.932-.581 1-1a3.078 3.078 0 000-1c-.2-.621-1.4-.257-2 0s-.392.764-1 1a1.857 1.857 0 01-2-1l-1-2c-.9-.191-2.1.185-3 0a1.274 1.274 0 012 0 8.45 8.45 0 002-2h1c-.142-.646.39-.747 1-1a4.516 4.516 0 012 0c-.128-.516.471-.95 1-1a1.091 1.091 0 001-1l3-1c.187-.573-.683-1.488-1-2 .839-.274 2.1-.123 2-1 .459-.086.568-.176 1 0s1.916.459 2 0c.037-.205-.957-.8-1-1-.091-.436 1.041-.558 1-1s-.606-1.2-1-1c.215-.315.381-1.022 0-1v-1h-1a1.28 1.28 0 011-1 4.231 4.231 0 010-2 3.583 3.583 0 01-3-1l-1 1c.151-.316-.649-.979-1-1s-.649 0-1 0c-1.07.008-1.971-1.3-3-1-.255.072-.754.9-1 1-1.23.5-1.866-1.692-3-1a2.423 2.423 0 00-2-3c-.546-.047-1.728.476-2 0-.186-.325.341-1.155 0-1 .725-.369-.524-1.34-1-2-.518-.719-1.351-1.6-2-1h-2c.217.516-.444.938-1 1l-3 1a6.569 6.569 0 000 3c-.485-.659-1.366-1.519-2-1a3.605 3.605 0 00-1-1c-.192.215.286.971 0 1a1.2 1.2 0 00-2 0l-2-1c-.435.863-1.855-.045-2-1-.591-.043-.408.044-1 0a11.294 11.294 0 00-5-1c-.8.044-.35.621-1 1a1.7 1.7 0 01-2-1c-.935.257-.241 2.279 0 3z" data-name="Path 819" fill="#7e7e7e"/></svg>